<?xml version="1.0" standalone="no"?>
<!DOCTYPE svg PUBLIC "-//W3C//DTD SVG 20010904//EN"
 "http://www.w3.org/TR/2001/REC-SVG-20010904/DTD/svg10.dtd">
<svg version="1.0" xmlns="http://www.w3.org/2000/svg"
 width="250.000000pt" height="248.000000pt" viewBox="0 0 250.000000 248.000000"
 preserveAspectRatio="xMidYMid meet">

<g transform="translate(0.000000,248.000000) scale(0.100000,-0.100000)"
fill="#000000" stroke="none">
<path d="M732 2464 c-15 -16 -16 -34 -2 -34 6 0 10 -4 10 -10 0 -5 -22 -10
-49 -10 -41 0 -53 4 -69 25 -12 15 -30 25 -46 25 -21 0 -26 -5 -26 -25 0 -20
-5 -25 -25 -25 -14 0 -25 -4 -25 -10 0 -5 -13 -10 -30 -10 -28 0 -30 3 -30 35
0 29 -4 35 -21 35 -22 0 -49 -22 -49 -39 0 -6 5 -11 10 -11 6 0 10 7 10 15 0
8 6 15 14 15 8 0 14 -10 14 -25 0 -17 -6 -25 -18 -25 -10 0 -21 -6 -23 -12 -3
-8 -6 -6 -6 4 -1 24 -61 40 -82 22 -17 -16 -129 -20 -129 -5 0 5 -11 12 -25
15 -14 4 -25 11 -25 16 0 15 -40 12 -56 -5 -9 -8 -11 -15 -5 -15 5 0 13 -9 16
-20 3 -11 13 -20 21 -20 9 0 22 -6 30 -14 16 -17 19 -46 4 -46 -5 0 -10 -9
-10 -21 0 -22 -22 -49 -39 -49 -6 0 -11 5 -11 10 0 6 7 10 15 10 8 0 15 5 15
10 0 15 -19 12 -36 -4 -21 -21 -17 -33 11 -40 23 -6 25 -11 25 -61 0 -30 5
-55 10 -55 6 0 10 -40 10 -100 0 -60 -4 -100 -10 -100 -5 0 -10 -11 -10 -25 0
-14 5 -25 10 -25 6 0 10 -9 10 -20 0 -11 -4 -20 -10 -20 -5 0 -10 -9 -10 -20
0 -11 -5 -20 -11 -20 -14 0 -39 -25 -39 -39 0 -6 16 -11 35 -11 34 0 35 -1 35
-40 0 -22 -4 -40 -10 -40 -5 0 -10 -16 -10 -35 0 -19 5 -35 10 -35 6 0 10 -13
10 -28 0 -40 -39 -59 -69 -33 -12 10 -21 23 -21 30 0 19 28 12 44 -11 9 -12
18 -19 22 -16 3 4 -5 18 -19 32 -32 32 -67 35 -67 6 0 -22 41 -70 60 -70 5 0
10 -11 10 -25 0 -14 9 -30 20 -37 16 -10 20 -24 20 -70 0 -32 -4 -58 -10 -58
-6 0 -10 -33 -10 -80 0 -49 -4 -80 -10 -80 -6 0 -22 -11 -35 -24 -27 -27 -17
-46 22 -46 16 0 23 -6 23 -20 0 -16 -7 -20 -31 -20 -26 0 -69 -25 -58 -34 15
-12 75 -36 91 -36 13 0 18 -7 18 -30 0 -16 5 -30 10 -30 6 0 10 -13 10 -30 0
-16 -4 -30 -10 -30 -6 0 -10 -26 -10 -59 0 -33 -5 -63 -10 -66 -13 -8 -13 -85
0 -85 6 0 10 -22 10 -50 0 -27 -4 -50 -10 -50 -5 0 -10 -11 -10 -25 0 -16 -6
-25 -15 -25 -8 0 -15 -4 -15 -10 0 -5 -7 -10 -16 -10 -22 0 -44 -25 -44 -49 0
-17 6 -21 31 -21 17 0 37 7 45 15 21 21 34 19 34 -5 0 -11 -4 -20 -10 -20 -5
0 -10 -11 -10 -25 0 -14 -4 -25 -10 -25 -18 0 -10 -45 10 -60 27 -19 27 -80 1
-99 -16 -12 -17 -16 -6 -28 17 -16 42 -17 48 0 3 7 15 0 32 -21 24 -28 34 -32
76 -32 27 0 49 5 49 10 0 6 34 10 83 10 70 0 85 -3 97 -19 7 -11 18 -18 22
-15 5 3 4 12 -3 20 -9 11 -8 14 5 14 9 0 16 5 16 10 0 6 9 10 20 10 11 0 20
-4 20 -10 0 -6 28 -10 65 -10 37 0 65 -4 65 -10 0 -5 18 -10 39 -10 50 0 71
-8 71 -27 0 -14 23 -43 34 -43 4 0 1 10 -5 23 -34 65 -35 67 -14 67 8 0 17
-12 21 -27 10 -48 12 -49 13 -10 1 35 13 48 26 27 8 -13 75 -13 75 0 0 6 43
10 110 10 61 0 110 -4 110 -8 0 -4 -9 -14 -20 -22 -11 -8 -20 -25 -20 -37 0
-18 6 -23 25 -23 14 0 25 5 25 10 0 6 -7 10 -15 10 -19 0 -19 17 -1 36 24 23
39 17 32 -12 -6 -24 -5 -25 9 -11 8 9 15 20 15 26 0 6 15 11 34 11 19 0 38 5
41 10 8 13 75 13 75 0 0 -5 16 -10 35 -10 19 0 35 5 35 10 0 6 14 10 30 10 25
0 30 -4 30 -25 0 -23 4 -25 45 -25 25 0 45 5 45 10 0 6 9 10 20 10 11 0 23 7
26 15 4 9 19 15 35 15 24 0 29 -4 29 -25 0 -22 4 -25 39 -25 21 0 52 7 67 15
40 20 105 20 98 0 -5 -12 2 -15 35 -15 40 0 111 27 111 42 0 4 14 8 30 8 17 0
30 -4 30 -10 0 -5 7 -10 15 -10 19 0 19 -10 0 -46 -15 -29 -19 -22 -15 24 1
12 -3 22 -9 22 -15 0 -14 -59 2 -74 10 -11 15 -11 25 0 7 7 12 20 12 29 0 8 5
15 10 15 6 0 10 7 10 15 0 8 9 15 20 15 11 0 20 5 20 10 0 6 28 10 65 10 37 0
65 -4 65 -10 0 -5 20 -10 45 -10 36 0 45 3 45 18 0 10 -9 24 -20 32 -21 15
-27 40 -10 40 6 0 10 18 10 40 0 22 5 40 10 40 6 0 10 13 10 29 0 40 9 61 27
61 8 0 21 7 30 15 14 14 13 15 -13 9 -16 -4 -30 -11 -32 -16 -6 -14 -32 -9
-32 7 0 8 12 17 28 21 47 10 48 12 10 13 -31 1 -38 5 -38 21 0 11 5 20 10 20
6 0 10 18 10 40 0 25 5 40 13 40 6 0 18 4 26 9 12 8 12 12 -2 25 -8 9 -25 16
-36 16 -20 0 -21 6 -21 85 0 50 4 85 10 85 6 0 10 16 10 35 0 19 -4 35 -10 35
-6 0 -10 87 -10 240 0 153 4 240 10 240 6 0 10 22 10 49 0 28 -4 53 -10 56
-17 11 -11 50 10 65 12 8 20 26 20 42 0 17 5 28 13 28 27 0 57 37 57 69 0 27
-3 31 -27 30 -17 -1 -21 -3 -10 -6 26 -7 22 -52 -5 -62 -27 -10 -34 0 -19 28
7 13 8 22 1 26 -5 3 -10 -1 -10 -10 0 -16 -22 -45 -34 -45 -3 0 -6 25 -6 55 0
30 5 55 10 55 6 0 10 55 10 145 0 90 -4 145 -10 145 -6 0 -10 27 -10 60 0 33
4 60 10 60 6 0 10 -4 10 -10 0 -5 11 -10 25 -10 27 0 32 14 13 35 -32 35 -38
45 -38 60 0 8 5 15 10 15 6 0 10 11 10 25 0 14 -4 25 -10 25 -5 0 -7 13 -4 30
5 22 2 31 -10 36 -9 3 -16 12 -16 20 0 10 14 14 48 15 48 1 48 3 0 13 -16 4
-28 13 -28 21 0 16 26 21 32 7 2 -5 16 -12 32 -16 26 -6 27 -5 13 9 -9 8 -23
15 -31 15 -9 0 -16 5 -16 10 0 6 -7 10 -15 10 -8 0 -15 -4 -15 -10 0 -5 -9
-10 -20 -10 -11 0 -20 -4 -20 -10 0 -5 -4 -10 -10 -10 -5 0 -10 11 -10 24 0
25 -25 53 -34 38 -3 -5 -17 -7 -31 -4 -15 2 -25 0 -25 -7 0 -6 -19 -11 -45
-11 -25 0 -45 5 -45 11 0 18 -30 41 -46 35 -9 -3 -18 -15 -21 -26 -4 -16 -14
-20 -49 -20 -23 0 -46 -4 -49 -10 -15 -24 -35 -9 -35 25 0 43 -26 48 -54 10
-14 -19 -28 -25 -57 -25 -22 0 -39 4 -39 9 0 5 -20 11 -45 13 -33 2 -44 0 -40
-9 7 -20 -30 -15 -48 5 -22 24 -21 32 3 32 11 0 20 -5 20 -11 0 -5 5 -7 10 -4
14 9 -14 35 -38 35 -13 0 -21 -8 -24 -25 -3 -14 -1 -25 3 -25 5 0 9 -4 9 -10
0 -6 -62 -10 -165 -10 -91 0 -165 4 -165 8 0 4 9 14 20 22 11 8 20 25 20 37 0
18 -6 23 -25 23 -14 0 -25 -4 -25 -10 0 -5 7 -10 15 -10 19 0 19 -17 1 -36
-24 -23 -39 -17 -32 12 6 24 5 25 -9 11 -8 -9 -15 -20 -15 -26 0 -6 -9 -11
-20 -11 -11 0 -20 7 -20 15 0 26 -39 18 -46 -10 -5 -19 -13 -25 -35 -25 -16 0
-29 5 -29 10 0 6 -16 10 -35 10 -19 0 -35 -4 -35 -10 0 -5 -4 -10 -10 -10 -5
0 -10 5 -10 11 0 6 -7 17 -15 25 -13 14 -17 14 -30 0 -8 -8 -15 -19 -15 -25 0
-17 -86 -13 -100 4 -7 8 -19 15 -26 15 -8 0 -14 -7 -14 -15 0 -10 -10 -15 -30
-15 -24 0 -30 4 -30 20 0 12 -10 31 -23 44 -18 18 -25 20 -35 10z m34 -42 c-4
-3 -11 0 -16 8 -15 24 -11 33 6 15 9 -9 13 -19 10 -23z m-672 -8 c18 -7 22
-24 5 -24 -6 0 -17 7 -25 15 -16 16 -7 19 20 9z m122 -44 c33 0 53 -4 49 -10
-3 -5 -20 -7 -37 -3 -22 4 -34 2 -42 -9 -9 -12 -15 -11 -36 11 -18 19 -20 23
-6 18 9 -4 42 -7 72 -7z m347 3 c-7 -2 -21 -2 -30 0 -10 3 -4 5 12 5 17 0 24
-2 18 -5z m245 -12 c2 -6 11 -11 20 -12 10 0 12 -3 5 -5 -7 -3 -28 2 -48 12
-28 13 -52 16 -108 11 -47 -3 -62 -2 -42 3 41 12 168 5 173 -9z m-305 2 c-7
-2 -21 -2 -30 0 -10 3 -4 5 12 5 17 0 24 -2 18 -5z m527 3 c0 -2 -16 -6 -35
-8 -19 -2 -35 0 -35 4 0 4 16 8 35 8 19 0 35 -2 35 -4z m180 -5 c0 -10 -119
-25 -128 -17 -3 3 9 6 26 6 18 0 32 5 32 10 0 6 16 10 35 10 19 0 35 -4 35 -9z
m468 2 c-21 -2 -55 -2 -75 0 -21 2 -4 4 37 4 41 0 58 -2 38 -4z m145 -14 c-6
-6 -23 -9 -39 -6 -29 4 -28 4 4 6 17 0 32 6 32 13 0 6 3 8 7 5 4 -4 2 -12 -4
-18z m307 14 c-25 -2 -54 -8 -65 -14 -12 -5 -50 -8 -85 -6 l-65 3 73 2 c40 1
72 6 72 12 0 6 25 9 58 8 52 -1 53 -2 12 -5z m-703 -19 c-3 -3 -12 -4 -19 -1
-8 3 -5 6 6 6 11 1 17 -2 13 -5z m469 -8 c8 -8 14 -22 14 -31 0 -14 -2 -14
-25 1 -25 16 -34 44 -14 44 6 0 17 -6 25 -14z m350 -1 c16 -16 5 -22 -11 -6
-6 5 -19 11 -30 14 -18 4 -17 5 3 6 13 0 30 -6 38 -14z m-1636 -16 c0 -5 5 -7
10 -4 6 3 10 1 10 -4 0 -12 -20 -14 -44 -5 -23 9 -20 24 4 24 11 0 20 -5 20
-11z m470 -4 c7 -8 20 -15 29 -15 14 0 14 -2 1 -10 -31 -20 -80 -2 -80 29 0
16 36 13 50 -4z m1090 0 c0 -8 -4 -15 -10 -15 -5 0 -10 -9 -10 -20 0 -11 -4
-20 -10 -20 -11 0 -14 53 -3 63 12 13 33 7 33 -8z m177 -7 c-3 -8 -6 -5 -6 6
-1 11 2 17 5 13 3 -3 4 -12 1 -19z m-817 -13 c21 -25 6 -33 -18 -8 -16 16 -18
23 -9 23 8 0 20 -7 27 -15z m837 -72 c-2 -16 -4 -3 -4 27 0 30 2 43 4 28 2
-16 2 -40 0 -55z m-250 45 c-3 -8 -6 -5 -6 6 -1 11 2 17 5 13 3 -3 4 -12 1
-19z m-1971 -40 c-9 -12 -16 -17 -16 -10 0 14 23 42 29 37 1 -2 -4 -14 -13
-27z m-9 -100 c-2 -13 -4 -5 -4 17 -1 22 1 32 4 23 2 -10 2 -28 0 -40z m5
-113 c3 -14 1 -28 -3 -31 -5 -3 -9 9 -9 25 0 38 6 40 12 6z m96 -34 c28 -24
28 -31 -1 -31 -25 0 -47 17 -47 37 0 18 21 16 48 -6z m2129 -18 c-3 -10 -5 -4
-5 12 0 17 2 24 5 18 2 -7 2 -21 0 -30z m-2210 -35 c-2 -13 -4 -5 -4 17 -1 22
1 32 4 23 2 -10 2 -28 0 -40z m2233 -9 c0 -11 -4 -17 -10 -14 -5 3 -10 13 -10
21 0 8 5 14 10 14 6 0 10 -9 10 -21z m-9 -119 c5 0 9 -25 9 -55 0 -30 -4 -55
-10 -55 -5 0 -10 -9 -10 -21 0 -11 -4 -18 -9 -15 -5 3 -2 24 5 47 11 30 12 50
4 77 -5 21 -9 46 -8 57 0 12 3 10 5 -7 2 -16 9 -28 14 -28z m-2239 -106 c2
-19 0 -37 -4 -40 -4 -3 -8 13 -8 35 0 51 6 53 12 5z m15 -81 c-3 -10 -5 -4 -5
12 0 17 2 24 5 18 2 -7 2 -21 0 -30z m2190 15 c-3 -8 -6 -5 -6 6 -1 11 2 17 5
13 3 -3 4 -12 1 -19z m-2210 -140 c-2 -13 -4 -5 -4 17 -1 22 1 32 4 23 2 -10
2 -28 0 -40z m2230 -25 c-3 -10 -5 -2 -5 17 0 19 2 27 5 18 2 -10 2 -26 0 -35z
m-20 -35 c-3 -8 -6 -5 -6 6 -1 11 2 17 5 13 3 -3 4 -12 1 -19z m20 -125 c-2
-21 -4 -4 -4 37 0 41 2 58 4 38 2 -21 2 -55 0 -75z m-2221 5 c-13 -18 -16 -19
-16 -5 0 9 5 17 10 17 6 0 11 10 11 23 1 16 3 17 6 5 2 -10 -3 -28 -11 -40z
m-20 -78 c0 -27 -3 -50 -8 -50 -4 0 -8 23 -8 50 0 28 4 50 8 50 5 0 8 -22 8
-50z m153 8 c0 -18 -3 -27 -6 -20 -6 15 -39 16 -48 2 -4 -6 -11 -8 -16 -4 -16
10 11 34 37 34 13 0 24 5 24 10 0 6 2 10 5 10 3 0 5 -15 4 -32z m2068 -35 c-2
-16 -4 -5 -4 22 0 28 2 40 4 28 2 -13 2 -35 0 -50z m22 -55 c-1 -31 -1 -31 -8
-8 -5 14 -6 28 -4 33 9 15 13 6 12 -25z m-2232 -15 c-3 -10 -5 -4 -5 12 0 17
2 24 5 18 2 -7 2 -21 0 -30z m-2 -108 c4 -31 5 -59 1 -62 -3 -4 -6 10 -6 30 0
21 -4 37 -10 37 -5 0 -10 11 -10 25 0 47 19 25 25 -30z m2212 13 c-3 -7 -5 -2
-5 12 0 14 2 19 5 13 2 -7 2 -19 0 -25z m20 -40 c-3 -7 -5 -2 -5 12 0 14 2 19
5 13 2 -7 2 -19 0 -25z m-2277 -10 c0 -17 -3 -19 -12 -10 -7 7 -22 12 -35 12
-13 0 -23 5 -23 10 0 6 16 10 35 10 29 0 35 -4 35 -22z m170 12 c0 -5 -5 -10
-11 -10 -6 0 -9 -6 -6 -13 3 -7 -3 -19 -13 -25 -14 -9 -19 -8 -24 3 -3 8 -1
15 4 15 6 0 10 9 10 20 0 13 7 20 20 20 11 0 20 -4 20 -10z m2087 -42 c-3 -7
-5 -2 -5 12 0 14 2 19 5 13 2 -7 2 -19 0 -25z m-2190 -115 c-2 -21 -4 -4 -4
37 0 41 2 58 4 38 2 -21 2 -55 0 -75z m2143 24 c0 -5 -4 -5 -10 -2 -5 3 -10
-3 -10 -14 0 -14 -6 -21 -20 -21 -11 0 -20 5 -20 10 0 6 4 10 10 10 5 0 7 7 4
15 -4 9 0 15 10 15 9 0 16 6 16 13 0 13 20 -12 20 -26z m-2149 -143 c6 -12 9
-32 6 -45 -3 -19 -5 -17 -6 9 0 17 -5 32 -11 32 -5 0 -9 21 -8 48 1 39 2 41 5
12 2 -19 8 -44 14 -56z m2196 -76 c-3 -7 -5 -2 -5 12 0 14 2 19 5 13 2 -7 2
-19 0 -25z m-2190 -70 c-3 -7 -5 -2 -5 12 0 14 2 19 5 13 2 -7 2 -19 0 -25z
m-20 -40 c-3 -7 -5 -2 -5 12 0 14 2 19 5 13 2 -7 2 -19 0 -25z m-47 -88 c0 -5
-4 -10 -10 -10 -5 0 -10 -7 -10 -16 0 -10 -6 -14 -15 -10 -8 3 -15 1 -15 -4 0
-6 -4 -10 -10 -10 -5 0 -10 9 -10 20 0 13 7 20 20 20 11 0 20 5 20 10 0 6 7
10 15 10 8 0 15 -4 15 -10z m150 -20 c0 -5 -4 -10 -10 -10 -5 0 -10 5 -10 10
0 6 5 10 10 10 6 0 10 -4 10 -10z m2130 -11 c0 -11 -4 -18 -10 -14 -5 3 -7 12
-3 20 7 21 13 19 13 -6z m-2140 -9 c12 -8 11 -10 -7 -10 -13 0 -23 5 -23 10 0
13 11 13 30 0z m2117 -32 c-3 -8 -6 -5 -6 6 -1 11 2 17 5 13 3 -3 4 -12 1 -19z
m20 -55 c-3 -10 -5 -2 -5 17 0 19 2 27 5 18 2 -10 2 -26 0 -35z m-11 -69 c-19
-19 -21 -11 -4 16 7 11 14 16 16 10 2 -5 -4 -17 -12 -26z m-2219 -46 c-3 -7
-5 -2 -5 12 0 14 2 19 5 13 2 -7 2 -19 0 -25z m1526 15 c-8 -3 -13 -22 -13
-45 0 -45 -21 -70 -77 -94 -52 -22 -63 -19 -63 21 0 19 5 35 10 35 6 0 10 7
10 16 0 18 23 44 39 44 20 0 11 -29 -10 -35 -14 -5 -18 -10 -11 -17 6 -6 8
-18 5 -27 -4 -14 -3 -14 7 -1 9 11 13 12 17 3 7 -18 23 -16 23 1 0 8 10 18 21
21 16 5 18 9 8 15 -10 7 -10 12 -1 23 14 17 4 31 -13 17 -9 -8 -14 -6 -19 5
-4 11 2 15 24 15 16 0 32 5 35 11 4 6 10 7 14 3 3 -4 0 -9 -6 -11z m-684 -17
c9 -11 9 -15 -1 -18 -12 -4 -38 14 -38 26 0 12 28 6 39 -8z m875 -2 c17 -45
-13 -92 -76 -119 -57 -23 -68 -20 -68 20 0 19 5 35 10 35 6 0 10 7 10 16 0 20
24 44 44 44 9 0 16 5 16 10 0 17 57 12 64 -6z m204 -25 c2 -27 -3 -41 -21 -59
-22 -21 -87 -50 -114 -50 -15 0 -18 56 -3 65 6 3 10 15 10 26 0 23 8 24 34 4
17 -13 18 -15 3 -15 -10 0 -17 -8 -17 -20 0 -11 5 -20 10 -20 6 0 10 5 10 10
0 6 17 10 38 10 34 1 36 2 18 15 -17 13 -17 15 -3 21 10 3 17 15 17 25 0 19
-1 19 -25 3 -20 -13 -31 -14 -48 -6 l-22 11 23 0 c12 1 22 6 22 12 0 6 14 9
33 7 29 -3 32 -6 35 -39z m-1901 -11 c-3 -7 -5 -2 -5 12 0 14 2 19 5 13 2 -7
2 -19 0 -25z m161 -15 c-10 -2 -28 -2 -40 0 -13 2 -5 4 17 4 22 1 32 -1 23 -4z
m240 0 c-21 -2 -57 -2 -80 0 -24 2 -7 4 37 4 44 0 63 -2 43 -4z m170 0 c-10
-2 -26 -2 -35 0 -10 3 -2 5 17 5 19 0 27 -2 18 -5z m116 -8 c17 -13 18 -15 3
-15 -9 0 -17 4 -17 9 0 5 -10 12 -22 14 -20 4 -20 4 -3 5 11 1 29 -5 39 -13z
m253 9 c-3 -3 -12 -4 -19 -1 -8 3 -5 6 6 6 11 1 17 -2 13 -5z m311 -1 c-10 -2
-26 -2 -35 0 -10 3 -2 5 17 5 19 0 27 -2 18 -5z m919 1 c-3 -3 -12 -4 -19 -1
-8 3 -5 6 6 6 11 1 17 -2 13 -5z m-1909 -21 c-15 -2 -42 -2 -60 0 -18 2 -6 4
27 4 33 0 48 -2 33 -4z m245 0 c-13 -2 -35 -2 -50 0 -16 2 -5 4 22 4 28 0 40
-2 28 -4z m685 0 c-10 -2 -28 -2 -40 0 -13 2 -5 4 17 4 22 1 32 -1 23 -4z
m935 0 c-13 -2 -33 -2 -45 0 -13 2 -3 4 22 4 25 0 35 -2 23 -4z"/>
<path d="M1810 190 c-7 -10 -23 -20 -34 -22 -15 -2 -21 -11 -23 -31 l-2 -29
19 22 c10 12 23 19 29 16 5 -3 17 -3 26 0 13 5 14 8 3 15 -10 6 -10 11 0 21 6
6 12 16 12 20 0 14 -15 8 -30 -12z"/>
<path d="M510 100 c0 -5 5 -10 10 -10 6 0 10 -7 10 -15 0 -9 -6 -12 -17 -8
-15 6 -16 5 -3 -9 12 -12 17 -13 27 -2 17 16 16 22 -1 40 -17 16 -26 18 -26 4z"/>
</g>
</svg>
